# xmcd
#
# Track frame offsets: 
#        150
#        28340
#        55745
#        78995
#        90663
#        104790
#        127853
#        152813
#
# Disc length: 2112 seconds
#
# Revision: 2
# Processed by: cddbd v1.5.1PL0 Copyright (c) Steve Scherf et al.
# Submitted via: ExactAudioCopy v0.90b4
#
DISCID=61083e08
DTITLE=The Marshall Tucker Band - The Marshall Tucker Band
DYEAR=1973
DGENRE=Southern Rock
TTITLE0=Take The Highway
TTITLE1=Can't You See
TTITLE2=Losing You
TTITLE3=Hillbilly Band
TTITLE4=See You Later, I'm Gone
TTITLE5=Ramblin'
TTITLE6=My Jesus Told Me So
TTITLE7=AB's Song
EXTD=
EXTT0=
EXTT1=
EXTT2=
EXTT3=
EXTT4=
EXTT5=
EXTT6=
EXTT7=
PLAYORDER=
